<?xml version="1.0" encoding="UTF-8"?>
<svg width="653px" height="572px" viewBox="0 0 653 572" version="1.1" xmlns="http://www.w3.org/2000/svg" xmlns:xlink="http://www.w3.org/1999/xlink">
    <title>Combined Shape</title>
    <g id="Page-1" stroke="none" stroke-width="1" fill="none" fill-rule="evenodd">
        <path d="M551.604127,159.634023 L551.720702,159.608128 C560.389852,157.505781 569.134996,156.459895 577.782105,156.610254 C637.740312,157.652827 665.208492,214.834524 647.894087,285.239621 C630.662801,355.306728 570.005571,413.2006 512.412371,414.549203 C506.342148,414.691343 500.60473,414.171374 495.218027,413.012985 C444.803663,509.662151 365.327537,572 275.918982,572 C123.533136,572 5.68434189e-14,390.914816 5.68434189e-14,167.534921 C5.68434189e-14,-53.1795361 538.747134,-55.8131689 551.604127,159.634023 Z M325.608949,331 C314.461681,331 304.588,333.443612 296.06747,338.330911 C287.653421,343.218209 280.943511,349.723037 275.938576,357.845589 C271.005773,349.791872 264.331585,343.304253 255.914349,338.382537 C247.389881,333.460821 237.473852,331 226.246388,331 C217.264417,331 208.989994,332.445517 201.46674,335.336595 C194.001976,338.227673 187.709366,342.357722 182.605852,347.726867 C177.583666,353.096011 174.01509,359.445962 171.885797,366.77691 C169.818871,374.107857 169.460533,382.178662 170.763998,390.989565 C172.821028,404.894273 178.659076,418.643896 188.051938,432.238845 C197.142959,445.833794 208.83835,459.084369 222.973169,471.990967 C236.585756,484.897564 261.882925,504 275.938576,504 C289.994227,504 315.410699,484.897564 329.045917,471.990967 C343.204706,459.084369 354.908118,445.833794 363.990207,432.238845 C373.374137,418.643896 379.203151,404.894273 381.251046,390.989565 C382.548722,382.178662 382.166151,374.107857 380.055977,366.77691 C377.882674,359.445962 374.289627,353.096011 369.263078,347.726867 C364.155201,342.357722 357.879097,338.227673 350.451931,335.336595 C342.966575,332.445517 334.671117,331 325.608949,331 Z M549.572806,220.480878 L549.492652,220.509553 C545.316727,267.30367 535.684282,311.581836 521.562215,351.92669 C522.622988,351.985776 523.725317,352.009584 524.864095,351.993811 C555.894036,351.564011 587.49415,321.393942 595.444925,284.607075 C603.978529,245.123559 590.710986,217.81318 565.95791,217.573311 C560.85373,217.523849 555.287485,218.530466 549.572806,220.480878 Z M276.132682,40.8616529 C171.063328,40.8616529 65.9939743,79.6461337 65.9939743,128.558429 C65.9939743,177.470724 160.076278,217.121974 276.132682,217.121974 C392.189086,217.121974 486.27139,177.470724 486.27139,128.558429 C486.27139,79.6461337 381.202036,40.8616529 276.132682,40.8616529 Z" id="Combined-Shape" fill="#000000"></path>
    </g>
</svg>